<svg width="32" height="32" viewBox="0 0 32 32" fill="none" xmlns="http://www.w3.org/2000/svg">
<circle cx="16" cy="16" r="16" fill="#3498DB"/>
<path d="M11.025 10.425C12.135 10.425 13.105 10.65 13.935 11.1C14.775 11.54 15.42 12.16 15.87 12.96C16.32 13.76 16.545 14.675 16.545 15.705C16.545 16.725 16.315 17.635 15.855 18.435C15.405 19.235 14.76 19.865 13.92 20.325C13.09 20.775 12.125 21 11.025 21H6.84V10.425H11.025ZM10.8 18.405C11.66 18.405 12.335 18.17 12.825 17.7C13.315 17.23 13.56 16.565 13.56 15.705C13.56 14.835 13.315 14.165 12.825 13.695C12.335 13.215 11.66 12.975 10.8 12.975H9.78V18.405H10.8ZM26.2253 13.95C26.2253 14.59 26.0753 15.175 25.7753 15.705C25.4853 16.225 25.0403 16.645 24.4403 16.965C23.8503 17.275 23.1253 17.43 22.2653 17.43H20.8103V21H17.8703V10.425H22.2653C23.1153 10.425 23.8353 10.575 24.4253 10.875C25.0253 11.175 25.4753 11.59 25.7753 12.12C26.0753 12.65 26.2253 13.26 26.2253 13.95ZM21.9803 15.09C22.8103 15.09 23.2253 14.71 23.2253 13.95C23.2253 13.18 22.8103 12.795 21.9803 12.795H20.8103V15.09H21.9803Z" fill="white"/>
</svg>
